<svg version="1.1" viewBox="0 0 533.04 150.13" xml:space="preserve" xmlns="http://www.w3.org/2000/svg">
<rect x="-245.48" y="-308.93" width="1024" height="768" fill="#fff"/>

 
 <g id="logo-group" transform="translate(-245 -308.87)" fill="#c43d71"><g stroke-miterlimit="2" stroke-width="0">
  <path d="m464 429.69q-4.8096 0-8.2966-1.2024-3.3667-1.3226-5.531-3.006-2.1643-1.8036-3.2465-3.487-0.96192-1.8036-0.96192-2.6453v-6.8537h7.5751q0 0.84168 0.48096 2.4048 0.6012 1.4429 1.8036 2.8858 1.2024 1.3226 3.1262 2.4048 2.0441 0.96192 4.6894 0.96192 5.1703 0 7.8156-3.006 2.6453-3.1262 2.6453-11.543v-68.3h10.341v68.176q0 11.182-4.9298 17.194-4.8096 6.012-15.511 6.012z" style="font-variant-ligatures:none"/>
  <path d="m525.14 429.69q-6.2525 0-10.701-1.4429-4.3286-1.4429-7.0942-3.3667-2.7655-1.9238-4.2084-3.8477-1.4429-1.9238-1.8036-3.006v-6.3727h6.3727q0.36072 1.0822 1.4429 2.7655 1.0822 1.5631 3.1262 3.2465 2.0441 1.5631 5.1703 2.7655 3.2465 1.0822 7.5751 1.0822 6.8537 0 9.8597-2.4048 3.1262-2.525 3.1262-6.2525 0-4.6894-3.8477-6.6132t-9.6192-3.1262l-6.8537-1.5631q-5.8918-1.3226-10.461-4.9298-4.5691-3.7274-4.5691-11.663 0-6.9739 5.531-12.144 5.531-5.2906 15.511-5.2906 9.2585 0 14.188 3.2465 5.0501 3.2465 6.7334 7.4549v6.3727h-6.3727q-0.24048-1.0822-1.0822-2.525-0.84168-1.5631-2.525-2.8858-1.6834-1.4429-4.4489-2.4048-2.6453-1.0822-6.3727-1.0822-6.1322 0-9.1382 2.6453-3.006 2.525-3.006 6.2525 0 3.9679 3.006 6.012 3.1262 2.0441 8.1763 3.2465l6.3727 1.4429q3.2465 0.72144 6.3727 1.9238 3.2465 1.2024 5.6513 3.1262 2.525 1.8036 4.0882 4.5691 1.5631 2.7655 1.5631 6.8537 0 7.5751-5.4108 12.745-5.4108 5.1703-16.353 5.1703z" style="font-variant-ligatures:none"/>
  <path d="m587.51 429.69q-6.8537 0-12.385-2.4048-5.531-2.525-9.3787-6.7334t-6.012-9.8597q-2.0441-5.7715-2.0441-12.144 0-6.3727 2.0441-12.024 2.1643-5.7715 6.012-9.8597 3.8477-4.2084 9.3787-6.6132 5.531-2.525 12.385-2.525 6.8537 0 12.385 2.525 5.531 2.4048 9.3787 6.6132 3.8477 4.0882 5.8918 9.8597 2.1643 5.6513 2.1643 12.024t-2.1643 12.144q-2.0441 5.6513-5.8918 9.8597t-9.3787 6.7334q-5.531 2.4048-12.385 2.4048zm0-8.1763q5.0501 0 8.8978-1.8036 3.8477-1.9238 6.3727-5.0501 2.525-3.1262 3.7274-7.3346 1.3226-4.2084 1.3226-8.7775t-1.3226-8.6573q-1.2024-4.2084-3.7274-7.3346t-6.3727-4.9298q-3.8477-1.9238-8.8978-1.9238t-8.8978 1.9238q-3.8477 1.8036-6.3727 5.0501-2.525 3.1262-3.8477 7.3346-1.2024 4.0882-1.2024 8.537 0 4.5691 1.2024 8.7775 1.3226 4.2084 3.8477 7.3346 2.525 3.1262 6.3727 5.0501 3.8477 1.8036 8.8978 1.8036z" style="font-variant-ligatures:none"/>
  <path d="m632.11 428.49v-59.759h8.4168l0.72144 10.1q1.9238-4.2084 6.7334-7.6954 4.8096-3.6072 12.505-3.6072 6.1322 0 10.341 1.9238 4.3286 1.9238 6.9739 5.4108 2.7655 3.3667 3.9679 8.0561t1.2024 10.22v35.351h-9.499v-34.268q0-8.537-3.487-13.587-3.3667-5.0501-11.543-5.0501-8.6573 0-12.745 5.531-4.0882 5.4108-4.0882 12.986v34.389z" style="font-variant-ligatures:none"/>
  <path d="m699.96 353.1v-11.18h11.303v11.182zm0.96192 75.39v-59.759h9.499v59.759z" style="font-variant-ligatures:none"/>
  <path d="m754.95 429.69q-7.2144 0-12.866-2.4048-5.531-2.525-9.2585-6.7334-3.7274-4.2084-5.7715-9.8597-1.9238-5.7715-1.9238-12.144 0-6.3727 2.0441-12.024 2.1643-5.7715 6.012-9.9799t9.3787-6.6132q5.531-2.525 12.385-2.525 6.9739 0 11.423 1.9238 4.5691 1.9238 7.0942 4.2084 2.525 2.2846 3.487 4.2084 0.96192 1.9238 0.96192 1.9238v6.2525h-6.3727t-0.6012-1.5631q-0.6012-1.6834-2.4048-3.6072t-5.0501-3.487q-3.2465-1.6834-8.537-1.6834-5.0501 0-8.8978 1.9238-3.8477 1.8036-6.3727 5.0501-2.525 3.1262-3.8477 7.3346-1.2024 4.0882-1.2024 8.6573t1.2024 8.7775q1.3226 4.2084 3.8477 7.3346 2.525 3.1262 6.3727 5.0501 3.8477 1.8036 8.8978 1.8036 5.531 0 8.7775-1.5631 3.3667-1.6834 5.0501-3.6072 1.8036-1.9238 2.2846-3.487 0.6012-1.6834 0.6012-1.6834h6.3727v6.3727t-1.0822 1.9238q-0.96192 1.9238-3.487 4.2084-2.525 2.1643-7.0942 4.0882-4.4489 1.9238-11.423 1.9238z" style="font-variant-ligatures:none"/>
  </g><path id="icon" d="m260.63 308.88c-0.14325 2e-3 -0.39225 0.0284-0.55275 0.0588-0.1605 0.03-0.37275 0.0842-0.471 0.1201-0.099 0.0363-0.3105 0.13427-0.47025 0.21809-0.15975 0.0842-0.399 0.24853-0.5325 0.36612-0.13275 0.11716-0.32925 0.32274-0.4365 0.45661-0.108 0.13388-0.26025 0.37778-0.33825 0.5421-0.0787 0.16433-0.17625 0.41116-0.21825 0.54878l-0.0751 0.2502-0.0125 9.7995c-0.0108 8.805-5e-3 9.8325 0.0538 10.128 0.0363 0.18097 0.11217 0.44369 0.16805 0.5838 0.0563 0.14053 0.17723 0.36779 0.26855 0.5054 0.0913 0.13761 0.27438 0.36071 0.40615 0.49581 0.13219 0.13511 0.36237 0.32526 0.51125 0.42242 0.14928 0.0976 0.38364 0.22435 0.52125 0.28231 0.13761 0.058 0.39489 0.13511 0.57171 0.1718 0.28898 0.0596 1.4324 0.0663 11.415 0.0663h11.095v43.786h-8.0168c-5.3547 4.1e-4 -8.1758 0.015-8.496 0.0446-0.26354 0.0246-0.70182 0.0897-0.97373 0.1447-0.27188 0.055-0.65635 0.14929-0.85485 0.20933-0.19849 0.0605-0.56128 0.1914-0.80692 0.29148-0.2452 0.10008-0.56421 0.24186-0.7089 0.31484-0.14429 0.0726-0.4316 0.23477-0.63801 0.35987-0.20642 0.1251-0.54502 0.35445-0.75225 0.50999-0.20767 0.15512-0.52167 0.41617-0.69848 0.58005-0.17639 0.16388-0.45619 0.44285-0.62091 0.6205-0.16513 0.17765-0.44494 0.51791-0.62175 0.75645-0.17722 0.23811-0.4366 0.63301-0.57629 0.87698-0.1397 0.24436-0.34111 0.64051-0.44661 0.88072-0.10592 0.23977-0.26396 0.65219-0.3507 0.91613-0.0871 0.26437-0.20684 0.7239-0.26563 1.0216-0.0592 0.29816-0.12676 0.7481-0.1497 1.0004-0.0271 0.29649-0.0421 5.0215-0.0421 13.365 0 8.343 0.015 13.068 0.0421 13.365 0.0229 0.25228 0.0905 0.70222 0.1497 1.0003 0.0588 0.29775 0.17848 0.75728 0.26563 1.0217 0.0867 0.26396 0.24352 0.67345 0.34777 0.9099 0.10425 0.23685 0.29399 0.61423 0.42159 0.8394 0.12719 0.22518 0.33694 0.55669 0.46621 0.73767 0.12927 0.18056 0.33443 0.44994 0.4562 0.59923 0.12176 0.14887 0.41533 0.46287 0.65218 0.69722 0.23644 0.23435 0.5617 0.53126 0.72224 0.66011 0.16055 0.12844 0.48915 0.36446 0.72975 0.52417 0.24103 0.15971 0.6818 0.41034 0.97995 0.5567 0.29816 0.14595 0.72392 0.33276 0.94658 0.41491 0.22226 0.0822 0.59756 0.19808 0.834 0.25813 0.23602 0.0601 0.63592 0.14804 0.88823 0.19557l0.45869 0.0867 24.726 0.0274-15.633 15.633-0.30774-0.61383c-0.16889-0.33777-0.412-0.79229-0.5396-1.01-0.1276-0.21809-0.34486-0.56503-0.48289-0.77144-0.13761-0.20642-0.38572-0.55378-0.55044-0.77146-0.16513-0.21809-0.47829-0.60298-0.69639-0.85567-0.21767-0.25271-0.63759-0.69139-0.93285-0.97538-0.29564-0.28397-0.78142-0.71223-1.0796-0.9516-0.29816-0.23935-0.80483-0.60881-1.1259-0.82109-0.32109-0.21267-0.7794-0.4954-1.0187-0.62884-0.23894-0.13302-0.66094-0.34945-0.93825-0.48081-0.27688-0.13135-0.7189-0.32358-0.98287-0.42783-0.26354-0.10425-0.75143-0.27356-1.0842-0.37656-0.33235-0.10299-0.86198-0.24477-1.1759-0.31483-0.31441-0.0705-0.8307-0.16555-1.1468-0.211-0.3165-0.0459-0.8382-0.10258-1.1593-0.12636-0.32109-0.0238-0.8286-0.043-1.128-0.0433-0.29941 0-0.7965 0.0196-1.105 0.0438-0.30858 0.0238-0.82358 0.0809-1.1446 0.12636-0.32109 0.0459-0.87488 0.15012-1.2302 0.23226-0.35528 0.0817-0.92993 0.24061-1.276 0.35237-0.34653 0.11217-0.86235 0.29898-1.1468 0.41574-0.28439 0.11635-0.81735 0.36613-1.1842 0.55461-0.36696 0.18849-0.8736 0.47205-1.1259 0.63051-0.25229 0.15804-0.64427 0.41992-0.87113 0.58213-0.22684 0.1618-0.61173 0.4587-0.85485 0.66053-0.24352 0.20141-0.70264 0.62341-1.0208 0.93825-0.31859 0.31442-0.76898 0.79897-1.0008 1.0762-0.23227 0.27772-0.55461 0.69055-0.71641 0.9174-0.16221 0.22726-0.42409 0.61924-0.58213 0.8715-0.15846 0.25228-0.44202 0.75892-0.63051 1.1259-0.18848 0.36696-0.43827 0.89985-0.55461 1.1842-0.11676 0.28439-0.30357 0.80025-0.41574 1.1468-0.11176 0.34611-0.27063 0.92032-0.35237 1.276-0.0822 0.35528-0.1864 0.90907-0.23227 1.2302-0.0455 0.32109-0.10258 0.8361-0.12635 1.1446-0.0269 0.3075-0.0465 0.81-0.0465 1.125 0 0.31191 0.0196 0.81937 0.0438 1.128 0.0238 0.30858 0.0809 0.82357 0.12635 1.1446 0.0459 0.32109 0.15012 0.87487 0.23227 1.2302 0.0817 0.35528 0.2406 0.92992 0.35236 1.276 0.11217 0.34653 0.29899 0.86235 0.41575 1.1468 0.11634 0.28439 0.36613 0.81735 0.55461 1.1842 0.18848 0.36696 0.47204 0.8736 0.6305 1.1259 0.15804 0.25228 0.41992 0.64426 0.58214 0.87112 0.16179 0.22685 0.45912 0.61175 0.66052 0.85485 0.20183 0.24353 0.60548 0.68388 0.89655 0.97913 0.29148 0.29523 0.71766 0.69889 0.94703 0.89737 0.22935 0.19808 0.56712 0.47414 0.7506 0.61341 0.18348 0.13886 0.53084 0.38406 0.77145 0.54461 0.24102 0.16095 0.60423 0.3903 0.80775 0.50998 0.20349 0.11969 0.61299 0.33944 0.9099 0.48831 0.2969 0.14887 0.76687 0.36362 1.0438 0.47747 0.27689 0.11384 0.7869 0.29857 1.1334 0.41074 0.34611 0.11176 0.9207 0.27063 1.276 0.35237 0.35528 0.0821 0.90908 0.18639 1.2302 0.23226 0.32109 0.0463 0.87488 0.10551 1.2302 0.13261 0.38573 0.0292 0.9741 0.0388 1.4595 0.0238 0.44744-0.0137 1.0666-0.0546 1.3761-0.0909 0.30983-0.0363 0.88193-0.12968 1.2718-0.20766 0.3899-0.078 0.94365-0.21017 1.2302-0.29315 0.2869-0.0834 0.77475-0.24603 1.0842-0.36154 0.30984-0.11552 0.7827-0.30942 1.0516-0.43118 0.26855-0.12177 0.74477-0.36446 1.0583-0.53919 0.31317-0.17514 0.80857-0.47746 1.1005-0.67178 0.29232-0.19474 0.78233-0.55378 1.0892-0.79852 0.30732-0.24437 0.87862-0.76478 1.2698-1.1559 0.39114-0.39115 0.90532-0.95535 1.1422-1.2535 0.23686-0.29815 0.62258-0.83317 0.85733-1.1884 0.23477-0.3557 0.5496-0.8715 0.70014-1.1468 0.15054-0.27522 0.3753-0.726 0.49998-1.0012 0.12426-0.27563 0.31275-0.73558 0.41825-1.0216 0.1055-0.28648 0.23852-0.67095 0.29524-0.8544 0.0571-0.18348 0.16054-0.56086 0.2306-0.83902 0.0696-0.27814 0.17222-0.76605 0.2281-1.0842 0.0559-0.31818 0.11425-0.71975 0.1301-0.89153l0.0284-0.31275 11.683-11.685 11.682-11.685h14.324v3.2839l-4.2e-4 3.2839-0.5938 0.14303c-0.32693 0.0784-0.88613 0.24144-1.243 0.36196-0.35654 0.12093-0.85193 0.3065-1.1008 0.41283-0.24895 0.10634-0.67263 0.30357-0.94155 0.43826-0.26897 0.1347-0.65553 0.34278-0.8586 0.46246-0.2035 0.11926-0.61383 0.38156-0.912 0.58296-0.29816 0.201-0.73893 0.52418-0.97995 0.71766-0.24061 0.19391-0.63134 0.53168-0.8682 0.75105-0.23644 0.21934-0.60924 0.59214-0.82815 0.8286-0.21935 0.23686-0.54294 0.60965-0.71975 0.82898-0.17639 0.21933-0.45328 0.58504-0.61424 0.81315-0.16138 0.22809-0.43451 0.64884-0.60716 0.93577-0.17222 0.28648-0.43827 0.771-0.5913 1.0767-0.15304 0.30566-0.3703 0.77895-0.48247 1.0521-0.11259 0.27356-0.28856 0.75518-0.39156 1.0708-0.103 0.31567-0.24395 0.79935-0.31317 1.0746-0.0692 0.27522-0.16388 0.71599-0.21059 0.97995-0.0467 0.26354-0.11384 0.7139-0.14928 1.0008-0.0354 0.28648-0.0759 0.89655-0.0901 1.3552-0.015 0.50332-6e-3 1.0904 0.0238 1.4804 0.0271 0.35528 0.0863 0.90908 0.13261 1.2302 0.0459 0.32109 0.15012 0.87488 0.23226 1.2302 0.0817 0.35528 0.24061 0.92993 0.35237 1.276 0.11217 0.34653 0.29899 0.86235 0.41575 1.1468 0.11634 0.28439 0.36612 0.81735 0.55461 1.1842 0.18848 0.36696 0.47204 0.8736 0.6305 1.1259 0.15804 0.25229 0.41992 0.64427 0.58213 0.87113 0.1618 0.22685 0.45912 0.61174 0.66053 0.85485 0.20182 0.24353 0.60548 0.68388 0.89655 0.97912 0.29148 0.29524 0.71766 0.6989 0.94702 0.89738 0.22935 0.19807 0.56712 0.47413 0.7506 0.61341 0.18348 0.13886 0.53085 0.38406 0.77145 0.5446 0.24103 0.16096 0.60423 0.39031 0.80775 0.50999 0.2035 0.11968 0.61299 0.33944 0.9099 0.48831 0.29691 0.14886 0.76688 0.36362 1.0438 0.47746 0.27688 0.11384 0.7869 0.29858 1.1334 0.41075 0.34611 0.11175 0.9207 0.27063 1.276 0.35236 0.3557 0.0822 0.90907 0.1864 1.2302 0.23227 0.32109 0.0455 0.8361 0.10258 1.1446 0.12635 0.30858 0.0242 0.81607 0.0438 1.128 0.0438 0.31192 0 0.81937-0.0196 1.128-0.0438 0.30858-0.0238 0.82357-0.0809 1.1446-0.12635 0.32109-0.0459 0.87487-0.15012 1.2302-0.23227 0.3557-0.0817 0.92992-0.24061 1.276-0.35236 0.34653-0.11217 0.86235-0.29899 1.1468-0.41575 0.28439-0.11635 0.81735-0.36613 1.1842-0.55461 0.36695-0.18848 0.8736-0.47204 1.1259-0.6305 0.25228-0.15846 0.61799-0.40116 0.81269-0.53919 0.19433-0.13803 0.53752-0.39865 0.76231-0.57921 0.22476-0.18098 0.59505-0.50541 0.82357-0.72141 0.2281-0.216 0.59297-0.58088 0.81068-0.81105 0.21767-0.22977 0.5571-0.61883 0.75435-0.86445 0.19724-0.24562 0.52291-0.69056 0.72391-0.98873 0.20141-0.29815 0.4637-0.70848 0.58338-0.912 0.11927-0.2035 0.33902-0.61299 0.48789-0.9099s0.36362-0.76687 0.47747-1.0438c0.11384-0.2769 0.29857-0.7869 0.41074-1.1334 0.11176-0.34611 0.27063-0.9207 0.35237-1.276 0.0821-0.35529 0.18639-0.90908 0.23226-1.2302 0.0455-0.32109 0.10259-0.8361 0.12636-1.1446 0.0242-0.30858 0.0438-0.81525 0.0438-1.1259 0-0.31067-0.0192-0.81855-0.043-1.128-0.0233-0.30984-0.0801-0.82568-0.12635-1.1468-0.0463-0.32109-0.15095-0.87488-0.2331-1.2302-0.0817-0.35571-0.24061-0.92993-0.35237-1.276-0.11217-0.34653-0.2969-0.8565-0.41074-1.1334-0.11384-0.27689-0.3286-0.74685-0.47747-1.0438-0.14886-0.2969-0.36862-0.70639-0.48789-0.9099-0.11967-0.2035-0.38238-0.61382-0.58422-0.912-0.2014-0.29815-0.53167-0.74851-0.73308-1.0008-0.20183-0.25228-0.65802-0.75682-1.0133-1.1209-0.3557-0.36446-0.87443-0.8532-1.1526-1.0858-0.27856-0.23269-0.71099-0.56712-0.96158-0.74309-0.25062-0.17599-0.65177-0.4437-0.89115-0.59465-0.23935-0.15137-0.81067-0.46037-1.2694-0.68722-0.4587-0.22684-1.093-0.50832-1.409-0.6255-0.3165-0.11717-0.8607-0.29481-1.2093-0.3949-0.34903-0.10008-0.75142-0.20475-0.8949-0.2331l-0.26062-0.0509v-6.5775h14.324l23.36 23.372 0.0496 0.4587c0.0271 0.25229 0.10508 0.74018 0.17347 1.0842 0.0684 0.34403 0.20058 0.89738 0.2944 1.2302 0.0934 0.33277 0.26396 0.85778 0.37947 1.1676 0.11509 0.30942 0.32484 0.81608 0.46579 1.1259 0.14136 0.30942 0.39448 0.80693 0.56253 1.105 0.16847 0.29816 0.46371 0.77895 0.65677 1.0679 0.19266 0.28939 0.55086 0.7773 0.7956 1.0842 0.24437 0.30733 0.76478 0.87862 1.1559 1.2698 0.39115 0.39114 0.9624 0.91155 1.2698 1.1559 0.30692 0.24478 0.7956 0.60298 1.0863 0.79688 0.29066 0.19349 0.77145 0.48789 1.0684 0.65427 0.29648 0.16638 0.77812 0.41116 1.0696 0.54377 0.29148 0.13302 0.7794 0.33485 1.0842 0.44911 0.30483 0.11426 0.82193 0.28314 1.1497 0.37571 0.32734 0.0926 0.88072 0.22393 1.2302 0.29232 0.34903 0.0684 0.88822 0.15387 1.1976 0.19057 0.30983 0.0363 0.9291 0.0776 1.3761 0.0913 0.48538 0.015 1.0738 5e-3 1.4595-0.0238 0.3557-0.0271 0.90907-0.0863 1.2302-0.13261 0.32109-0.0459 0.87487-0.15012 1.2302-0.23227 0.3557-0.0817 0.92992-0.24061 1.276-0.35236 0.34653-0.11217 0.86235-0.29899 1.1468-0.41575 0.28439-0.11635 0.81735-0.36613 1.1842-0.55461 0.36696-0.18848 0.8736-0.47204 1.1259-0.6305 0.25228-0.15846 0.61799-0.40116 0.8127-0.53918 0.19432-0.13803 0.53752-0.39866 0.7623-0.57922 0.22477-0.18098 0.59506-0.50541 0.82357-0.72141 0.2281-0.216 0.59298-0.58088 0.81068-0.81105 0.21767-0.22977 0.55711-0.61883 0.75435-0.86445s0.52291-0.69056 0.72391-0.98873c0.20141-0.29815 0.46371-0.70848 0.58338-0.912 0.11927-0.20349 0.33903-0.61299 0.48789-0.9099 0.14887-0.29691 0.36363-0.76687 0.47747-1.0438 0.11384-0.27689 0.29857-0.7869 0.41074-1.1334 0.11176-0.34611 0.27063-0.9207 0.35237-1.276 0.0822-0.35528 0.1864-0.90908 0.23227-1.2302 0.0455-0.32109 0.10258-0.8361 0.12635-1.1446 0.0242-0.30858 0.0438-0.81608 0.0438-1.128s-0.0196-0.81938-0.0438-1.128c-0.0238-0.30858-0.0809-0.82358-0.12635-1.1446-0.0459-0.32109-0.15012-0.87488-0.23227-1.2302-0.0817-0.3557-0.24061-0.92993-0.35237-1.276-0.11217-0.34653-0.2969-0.8565-0.41074-1.1334-0.11384-0.27689-0.3286-0.74684-0.47747-1.0438-0.14886-0.2969-0.36862-0.70639-0.48789-0.9099-0.11967-0.20349-0.38197-0.61382-0.58338-0.912-0.201-0.29815-0.52458-0.74017-0.71891-0.98242-0.19474-0.24186-0.53876-0.63593-0.76477-0.8757-0.22602-0.23936-0.57046-0.58589-0.76523-0.77018-0.19432-0.18431-0.51291-0.46787-0.70807-0.63008-0.19473-0.16222-0.53709-0.42951-0.7602-0.59422-0.22267-0.16431-0.64509-0.44953-0.93825-0.63343-0.29273-0.18389-0.82567-0.48289-1.1842-0.6647-0.35862-0.18181-0.86527-0.41783-1.1259-0.525-0.26062-0.10717-0.68971-0.26855-0.9537-0.35862-0.26354-0.0901-0.76102-0.23685-1.105-0.3261-0.34402-0.0897-0.84105-0.20057-1.105-0.24728-0.26354-0.0463-0.72349-0.11342-1.0216-0.14887-0.29815-0.035-0.89865-0.0755-1.3344-0.0888-0.46245-0.0146-1.07-5e-3 -1.4595 0.0233-0.36696 0.0267-0.92617 0.0859-1.2427 0.13177-0.31609 0.0459-0.83235 0.14094-1.1468 0.21142-0.314 0.07-0.84315 0.21184-1.1759 0.31483-0.33234 0.103-0.8202 0.27189-1.0842 0.3753-0.26354 0.10342-0.77977 0.33402-1.1468 0.51291-0.36696 0.17889-0.912 0.47371-1.211 0.65511-0.29899 0.18181-0.73392 0.46495-0.9666 0.63009-0.23226 0.16471-0.62926 0.46829-0.8811 0.67428-0.25228 0.20601-0.68805 0.59548-0.96825 0.86528-0.28022 0.27022-0.68764 0.69764-0.90487 0.94995-0.21767 0.25228-0.53084 0.63676-0.69598 0.85485-0.16471 0.21767-0.41283 0.56503-0.55044 0.77145-0.13802 0.20641-0.34861 0.5421-0.46828 0.7456-0.1201 0.20391-0.35988 0.65427-0.53293 1.0008-0.17348 0.34694-0.32318 0.63926-0.33277 0.64968-0.01 0.0104-3.5357-3.4986-7.8352-7.7978l-7.8172-7.8172 24.708-0.0446 0.417-0.0726c0.22935-0.0401 0.63551-0.12719 0.9024-0.19432 0.26688-0.0667 0.67013-0.18932 0.89655-0.2723 0.22602-0.0826 0.65594-0.27063 0.9549-0.41742 0.29858-0.1472 0.73976-0.39782 0.97995-0.55753 0.23978-0.15929 0.58631-0.41158 0.7698-0.56003 0.18348-0.14845 0.52542-0.46412 0.7602-0.70181 0.23435-0.23769 0.53126-0.56337 0.65969-0.72391 0.12885-0.16055 0.36446-0.48914 0.52417-0.72975 0.15971-0.24103 0.41033-0.6818 0.5567-0.97995 0.14595-0.29816 0.33234-0.72308 0.41408-0.9441 0.0813-0.22101 0.19599-0.58673 0.25479-0.81315 0.0588-0.22602 0.14845-0.63635 0.19849-0.91155l0.0917-0.5004 0.0117-11.436 0.0121-11.436 7.9328-4.2e-4c5.2842 0 8.022-0.0146 8.1998-0.0434 0.14678-0.0238 0.39824-0.0892 0.5592-0.14553 0.16055-0.0563 0.42492-0.18557 0.58797-0.28732 0.16263-0.10174 0.40616-0.2944 0.54126-0.42784 0.13511-0.13302 0.32526-0.36446 0.42326-0.51416 0.0976-0.14929 0.22643-0.39198 0.28648-0.5396 0.0596-0.14762 0.13927-0.41867 0.17639-0.60257 0.0488-0.24102 0.0609-0.44493 0.0434-0.73183-0.0137-0.21893-0.055-0.51041-0.0922-0.64802-0.0371-0.13761-0.13219-0.3853-0.211-0.55044-0.0788-0.16554-0.25396-0.43743-0.38865-0.60465-0.13469-0.16763-5.9189-5.9731-12.854-12.902-8.658-8.6505-12.686-12.647-12.856-12.757-0.13594-0.088-0.37071-0.21141-0.52125-0.2748-0.15053-0.063-0.42409-0.14469-0.60757-0.18139l-0.3336-0.0663-63.384 0.0234-0.2085 0.0676c-0.11467 0.0371-0.30941 0.108-0.43284 0.15762-0.12385 0.0492-0.34903 0.17097-0.5004 0.2698-0.15179 0.0988-0.37739 0.28022-0.50124 0.40283-0.12426 0.12301-0.30524 0.34694-0.4024 0.49706-0.0972 0.15054-0.2256 0.39323-0.28523 0.53959-0.0592 0.14637-0.13635 0.40366-0.17097 0.57129-0.0346 0.16764-0.063 0.43535-0.063 0.59465 0 0.15929 0.0271 0.43159 0.06 0.60465 0.0334 0.17305 0.11425 0.44327 0.18056 0.6009 0.0663 0.15721 0.19224 0.3974 0.28022 0.53334 0.108 0.16722 2.366 2.4561 6.981 7.0756l6.8182 6.8198h-26.833v-43.785h4.8388c4.2617 0 4.8772-8e-3 5.1604-0.0663 0.17639-0.0367 0.42742-0.10967 0.55711-0.16221 0.13011-0.053 0.36488-0.17973 0.52167-0.2819 0.1568-0.10216 0.38656-0.28731 0.51041-0.41116s0.30483-0.34736 0.40198-0.49623c0.0967-0.14929 0.2231-0.38364 0.28023-0.52125 0.0567-0.13761 0.12927-0.35362 0.16096-0.47955 0.0475-0.19016 0.0576-1.3878 0.0576-7.0056v-6.7762l-0.132-0.37725c-0.0728-0.20775-0.2025-0.49575-0.2865-0.6405-0.0855-0.1455-0.28575-0.40223-0.44625-0.57075-0.1605-0.16845-0.40875-0.3807-0.55275-0.4716-0.14325-0.0905-0.37125-0.2106-0.50625-0.26648-0.135-0.0563-0.339-0.123-0.45375-0.14887-0.11475-0.0258-8.7142-1.4636-19.109-3.1954-12.04-2.0054-18.995-3.1471-19.161-3.1446zm3.1905 6.8342c0.0288-4.2e-4 7.0657 1.1676 15.638 2.5958l15.585 2.5972v6.7342h-31.275v-5.9631c0-4.7421 0.0108-5.9631 0.0521-5.9639zm59.37 49.457h11.197l18.765 18.765h-22.395l-18.765-18.765zm31.254 0h11.217l18.765 18.765h-22.434l-18.765-18.765zm-60.235 18.768 27.67-3e-3 2.7952 2.7869c1.6834 1.6784 2.8869 2.8464 3.027 2.9369 0.12761 0.0826 0.34111 0.19849 0.47455 0.25729 0.13344 0.0592 0.34778 0.1401 0.47663 0.17972l0.23436 0.0722 41.222 0.0225-0.0121 11.228-0.0117 11.228-0.0717 0.23394c-0.0396 0.12885-0.11217 0.32567-0.16138 0.43785-0.0492 0.11217-0.16846 0.32567-0.2652 0.47496-0.0963 0.14887-0.2769 0.37238-0.40074 0.49623-0.12385 0.12385-0.35362 0.309-0.51041 0.41116-0.15679 0.10217-0.39157 0.22894-0.52167 0.28189-0.12969 0.0526-0.38072 0.12552-0.55711 0.16222l-0.32151 0.0663h-100.67l-0.32151-0.0663c-0.1768-0.0367-0.4341-0.11384-0.57171-0.17181-0.13761-0.058-0.37196-0.18473-0.52125-0.28231-0.14886-0.0972-0.37905-0.28731-0.51124-0.42242-0.13178-0.1351-0.31484-0.3582-0.40616-0.49581-0.0913-0.13761-0.21183-0.36404-0.2673-0.5029-0.0559-0.13928-0.13093-0.39657-0.16722-0.57171-0.0585-0.2925-0.0652-1.6275-0.0652-13.132 0-11.508 7e-3 -12.838 0.0659-13.126 0.0363-0.17681 0.11718-0.44369 0.17973-0.59339 0.0626-0.14929 0.18974-0.38406 0.28314-0.52125 0.0934-0.1372 0.27063-0.35028 0.39407-0.4733 0.12301-0.12343 0.33234-0.29774 0.46495-0.38822 0.13261-0.0901 0.36738-0.21768 0.52167-0.28357 0.15429-0.0655 0.41158-0.14761 0.57212-0.1818 0.25729-0.055 3.5495-0.063 27.958-0.0659zm-33.359 50.06c0.50582 0.0109 0.94365 0.045 1.2718 0.10008 0.27522 0.0459 0.68554 0.13178 0.91155 0.19057 0.22643 0.0588 0.59214 0.17348 0.81315 0.25479 0.22101 0.0817 0.64593 0.26771 0.9441 0.41325 0.29815 0.14595 0.73934 0.39615 0.97995 0.55628 0.24103 0.16054 0.5692 0.39657 0.72975 0.52542 0.16054 0.12843 0.48622 0.42534 0.72391 0.65969 0.23769 0.23477 0.55336 0.57671 0.70182 0.7602 0.14845 0.18348 0.40074 0.53042 0.56044 0.77145 0.15971 0.24061 0.40991 0.68179 0.55628 0.97995 0.14595 0.29816 0.33234 0.72307 0.41408 0.9441 0.0813 0.22101 0.19599 0.58672 0.25479 0.81315 0.0592 0.22602 0.1472 0.64552 0.19641 0.9324 0.0709 0.41658 0.0892 0.70139 0.0913 1.4178 2e-3 0.66053-0.0171 1.0225-0.0717 1.3761-0.0409 0.26354-0.13928 0.72975-0.21935 1.0358-0.0796 0.30608-0.2035 0.70932-0.27564 0.89655-0.0717 0.18723-0.21809 0.52792-0.32526 0.75727s-0.30441 0.59506-0.43868 0.81315c-0.13386 0.21767-0.37613 0.57421-0.53876 0.7923-0.16221 0.21767-0.5004 0.6084-0.75143 0.86775-0.25103 0.25937-0.62633 0.60923-0.834 0.77768-0.20767 0.16846-0.56545 0.43117-0.79477 0.5838-0.22935 0.1522-0.66095 0.39656-0.9591 0.54251-0.29816 0.14637-0.72225 0.33235-0.94245 0.41325-0.22018 0.0813-0.62384 0.2035-0.89655 0.27188-0.27314 0.0684-0.70265 0.15763-0.9549 0.19849-0.33777 0.0542-0.69556 0.0738-1.3552 0.0738-0.6672 0-1.0137-0.0192-1.3552-0.0751-0.25229-0.0413-0.59923-0.10885-0.77145-0.14971-0.17181-0.0412-0.45328-0.11634-0.6255-0.16721-0.17181-0.0513-0.51333-0.17473-0.75893-0.27481-0.2452-0.10008-0.5642-0.24144-0.7089-0.31442-0.14428-0.0725-0.42868-0.23352-0.63175-0.35737-0.20308-0.12343-0.54085-0.35195-0.7506-0.5079-0.20976-0.15555-0.52709-0.41783-0.70473-0.58255-0.17765-0.16513-0.45787-0.44494-0.62259-0.62258-0.16513-0.17765-0.44493-0.51791-0.62175-0.75645-0.17722-0.23811-0.43659-0.63301-0.57629-0.87698-0.13969-0.24436-0.34111-0.64051-0.44661-0.88072-0.10591-0.23978-0.26396-0.65219-0.3507-0.91613-0.0872-0.26437-0.20683-0.7239-0.26563-1.0216-0.0602-0.2925-0.12772-0.7425-0.1506-0.9975-0.023-0.255-0.0422-0.6375-0.0422-0.855 0-0.21809 0.0192-0.60256 0.0421-0.85485 0.0229-0.25228 0.0905-0.70222 0.1497-1.0004 0.0588-0.29774 0.17848-0.75727 0.26563-1.0216 0.0867-0.26396 0.24478-0.67638 0.3507-0.91612 0.1055-0.24019 0.30691-0.63634 0.44661-0.88073 0.13969-0.24394 0.39907-0.63884 0.57629-0.87697 0.17681-0.23852 0.45662-0.57879 0.62175-0.75645 0.16472-0.17765 0.44494-0.45745 0.62258-0.62258 0.17765-0.16472 0.49498-0.42701 0.70473-0.58255 0.20976-0.15596 0.54753-0.38447 0.7506-0.50791 0.20308-0.12385 0.48289-0.28231 0.62175-0.35236 0.13928-0.07 0.43577-0.2035 0.65886-0.29649 0.22352-0.093 0.58839-0.22393 0.81068-0.29106 0.22267-0.0671 0.53584-0.15138 0.69639-0.18765 0.16054-0.0363 0.40449-0.0863 0.5421-0.11134 0.13761-0.0251 0.40991-0.0617 0.60465-0.0817 0.19516-0.02 0.70181-0.0292 1.1259-0.02zm56.295 0c0.50582 0.0109 0.94365 0.045 1.2718 0.10008 0.27522 0.0459 0.68554 0.13178 0.91155 0.19057 0.22643 0.0588 0.59214 0.17348 0.81315 0.25479 0.22101 0.0817 0.64593 0.26771 0.9441 0.41325 0.29815 0.14595 0.73934 0.39615 0.97995 0.55628 0.24103 0.16054 0.5692 0.39657 0.72975 0.52542 0.16054 0.12843 0.48623 0.42534 0.72391 0.65969 0.23769 0.23477 0.55336 0.57671 0.70181 0.7602 0.14845 0.18348 0.40074 0.53042 0.56045 0.77145 0.15971 0.24061 0.40992 0.68179 0.55628 0.97995 0.14595 0.29816 0.33234 0.72307 0.41408 0.9441 0.0813 0.22101 0.19599 0.58672 0.25479 0.81315 0.0593 0.22602 0.14762 0.64552 0.19682 0.9324 0.0734 0.42785 0.0892 0.68972 0.0892 1.4595s-0.0158 1.0316-0.0892 1.4595c-0.0492 0.28648-0.13761 0.70639-0.19682 0.9324-0.0588 0.22642-0.17348 0.59214-0.25479 0.81315-0.0817 0.22101-0.26813 0.64593-0.41408 0.9441-0.14636 0.29816-0.39657 0.73934-0.55628 0.97995s-0.412 0.58797-0.56045 0.77145-0.46412 0.52542-0.70181 0.7602c-0.23768 0.23435-0.56337 0.53126-0.72391 0.65969-0.16055 0.12885-0.48872 0.36446-0.72975 0.52417-0.24061 0.15971-0.6818 0.41033-0.97995 0.55669-0.29816 0.14596-0.72308 0.33235-0.9441 0.41409-0.22101 0.0813-0.58673 0.19599-0.81315 0.25479-0.22601 0.0592-0.64552 0.14719-0.9324 0.1964-0.42117 0.0721-0.69722 0.0897-1.4386 0.0909-0.69556 1e-3 -1.0283-0.0163-1.3761-0.0734-0.25229-0.0417-0.59923-0.10925-0.77145-0.15012-0.1718-0.0413-0.45328-0.11634-0.6255-0.16721-0.1718-0.0513-0.51333-0.17473-0.75893-0.27481-0.24519-0.10008-0.5642-0.24144-0.7089-0.31441-0.14428-0.0725-0.42867-0.23352-0.63175-0.35737-0.20308-0.12343-0.54085-0.35195-0.7506-0.50791-0.20975-0.15554-0.52709-0.41783-0.70473-0.58255-0.17764-0.16513-0.45787-0.44493-0.62258-0.62258-0.16514-0.17764-0.44494-0.51791-0.62175-0.75645-0.17723-0.23811-0.4366-0.633-0.5763-0.87697-0.13969-0.24437-0.3411-0.64052-0.4466-0.88073-0.10592-0.23977-0.26397-0.65219-0.3507-0.91612-0.0872-0.26438-0.20684-0.72391-0.26563-1.0216-0.0592-0.29816-0.12677-0.7481-0.1497-1.0004-0.0233-0.255-0.0428-0.6375-0.0428-0.855 0-0.21809 0.0192-0.60257 0.0421-0.85485 0.0229-0.25229 0.0905-0.70223 0.1497-1.0004 0.0588-0.29774 0.17847-0.75728 0.26563-1.0216 0.0867-0.26396 0.24477-0.67638 0.3507-0.91613 0.1055-0.24018 0.30691-0.63633 0.44661-0.88072 0.13969-0.24395 0.39906-0.63884 0.57629-0.87698 0.1768-0.23852 0.45661-0.57879 0.62175-0.75645 0.16471-0.17764 0.44494-0.45744 0.62258-0.62258 0.17764-0.16471 0.49498-0.427 0.70473-0.58255 0.20975-0.15595 0.54752-0.38447 0.7506-0.5079 0.20308-0.12385 0.48289-0.28231 0.62175-0.35237 0.13928-0.0701 0.43576-0.2035 0.65886-0.29648 0.22351-0.093 0.58839-0.22394 0.81067-0.29107 0.22268-0.0671 0.53585-0.15137 0.6964-0.18765 0.16054-0.0363 0.40448-0.0863 0.5421-0.11134 0.13761-0.0251 0.40991-0.0617 0.60465-0.0817 0.19515-0.02 0.70181-0.0292 1.1259-0.02zm56.295 0c0.50582 0.0109 0.94365 0.045 1.2718 0.10008 0.27522 0.0459 0.68555 0.13178 0.91155 0.19057 0.22642 0.0588 0.59214 0.17348 0.81315 0.25479 0.22101 0.0817 0.64593 0.26771 0.9441 0.41325 0.29815 0.14595 0.73934 0.39615 0.97995 0.55628 0.24103 0.16054 0.5692 0.39657 0.72975 0.52542 0.16055 0.12843 0.48622 0.42534 0.72392 0.65969 0.23769 0.23477 0.55335 0.57671 0.7018 0.7602 0.14845 0.18348 0.40074 0.53042 0.56045 0.77145 0.15972 0.24061 0.40991 0.68179 0.55628 0.97995 0.14595 0.29816 0.33234 0.72307 0.41408 0.9441 0.0813 0.22101 0.19599 0.58672 0.25479 0.81315 0.0592 0.22602 0.14761 0.64552 0.19682 0.9324 0.0734 0.42785 0.0892 0.68972 0.0892 1.4595s-0.0158 1.0316-0.0892 1.4595c-0.0492 0.28648-0.13761 0.70639-0.19682 0.9324-0.0588 0.22642-0.17348 0.59214-0.25479 0.81315-0.0817 0.22101-0.26813 0.64593-0.41408 0.9441-0.14637 0.29816-0.39656 0.73934-0.55628 0.97995-0.15971 0.24061-0.412 0.58797-0.56045 0.77145s-0.46411 0.52542-0.7018 0.7602c-0.2377 0.23435-0.56337 0.53126-0.72392 0.65969-0.16054 0.12885-0.48872 0.36446-0.72975 0.52417-0.24061 0.15971-0.6818 0.41033-0.97995 0.55669-0.29816 0.14596-0.72308 0.33235-0.9441 0.41409-0.22101 0.0813-0.58673 0.19599-0.81315 0.25479-0.22602 0.0592-0.64552 0.14719-0.9324 0.1964-0.42117 0.0721-0.69722 0.0897-1.4386 0.0909-0.69556 1e-3 -1.0283-0.0163-1.3761-0.0734-0.25229-0.0417-0.59923-0.10925-0.77145-0.15012-0.1718-0.0413-0.45328-0.11634-0.6255-0.16721-0.1718-0.0513-0.51333-0.17473-0.75893-0.27481-0.24519-0.10008-0.5642-0.24144-0.7089-0.31441-0.14428-0.0725-0.42867-0.23352-0.63175-0.35737-0.20308-0.12343-0.54085-0.35195-0.7506-0.50791-0.20975-0.15554-0.52709-0.41783-0.70473-0.58255-0.17765-0.16513-0.45787-0.44493-0.62258-0.62258-0.16513-0.17764-0.44494-0.51791-0.62175-0.75645-0.17722-0.23811-0.4366-0.633-0.5763-0.87697-0.13969-0.24437-0.3411-0.64052-0.4466-0.88073-0.10592-0.23977-0.26396-0.65219-0.3507-0.91612-0.0872-0.26438-0.20683-0.72391-0.26563-1.0216-0.0592-0.29816-0.12676-0.7481-0.1497-1.0004-0.0229-0.25229-0.0421-0.63718-0.0421-0.85485 0-0.21809 0.0192-0.60257 0.0421-0.85485 0.023-0.25229 0.0905-0.70223 0.1497-1.0004 0.0588-0.29774 0.17848-0.75728 0.26563-1.0216 0.0867-0.26396 0.24478-0.67638 0.3507-0.91613 0.1055-0.24018 0.30691-0.63634 0.4466-0.88072 0.1397-0.24395 0.39908-0.63884 0.5763-0.87698 0.17681-0.23852 0.45662-0.57879 0.62175-0.75645 0.16471-0.17764 0.44493-0.45744 0.62258-0.62258 0.17764-0.16471 0.49498-0.427 0.70473-0.58255 0.20975-0.15595 0.54752-0.38447 0.7506-0.5079 0.20308-0.12385 0.48289-0.28231 0.62175-0.35237 0.13927-0.07 0.43576-0.2035 0.65886-0.29648 0.22351-0.093 0.58838-0.22394 0.81067-0.29107 0.22268-0.0671 0.53585-0.15137 0.69639-0.18765 0.16055-0.0363 0.40449-0.0863 0.5421-0.11134 0.13761-0.0251 0.40992-0.0617 0.60465-0.0817 0.19516-0.02 0.70182-0.0292 1.1259-0.02zm-90.94-43.8c-8.157 3e-3 -9.7508 0.0125-9.9788 0.0617-0.14887 0.0321-0.38156 0.0997-0.51666 0.1497-0.13469 0.0505-0.37864 0.17931-0.5421 0.28648-0.16305 0.10716-0.3974 0.29649-0.52042 0.42034-0.12343 0.12384-0.30066 0.33735-0.39406 0.47454s-0.22059 0.37196-0.28314 0.52125c-0.0626 0.1497-0.14345 0.41658-0.17973 0.59339-0.0584 0.28481-0.0659 1.0646-0.0659 6.8717 0 5.8059 8e-3 6.5865 0.0659 6.8692 0.0363 0.17514 0.11133 0.43243 0.16722 0.5717 0.0555 0.13886 0.17597 0.3653 0.2673 0.50291 0.0913 0.13761 0.27438 0.3607 0.40615 0.49581 0.13219 0.13511 0.36196 0.32526 0.51125 0.42242 0.14928 0.0976 0.38364 0.22435 0.52125 0.28231 0.13761 0.058 0.39489 0.13511 0.57171 0.17181 0.28856 0.0596 1.3114 0.0663 9.999 0.0663 8.685 0 9.711-7e-3 9.999-0.0663 0.17639-0.0367 0.42742-0.10968 0.55711-0.16222 0.1301-0.053 0.36488-0.17972 0.52167-0.28189 0.1568-0.10216 0.38656-0.28732 0.51041-0.41116 0.12385-0.12385 0.30441-0.34737 0.40074-0.49623 0.0967-0.14929 0.216-0.36279 0.26521-0.47496 0.0492-0.11218 0.12135-0.309 0.16097-0.43785l0.0713-0.23394 0.0129-6.672c0.0117-5.9906 6e-3 -6.7062-0.0538-7.0056-0.0371-0.18348-0.11843-0.45578-0.18098-0.60549-0.0626-0.14928-0.19015-0.38406-0.28356-0.52125-0.0934-0.13719-0.26688-0.34778-0.38572-0.46829-0.11885-0.12051-0.33194-0.29773-0.47372-0.39406-0.14136-0.0959-0.37989-0.2256-0.52917-0.28815-0.1497-0.0625-0.41658-0.14345-0.59339-0.17973-0.28773-0.0588-1.3357-0.0655-10.029-0.0625zm0.0292 6.255h6.255v6.255h-12.51v-6.255zm53.138 3e-3c-0.17847 2e-3 -0.44702 0.0296-0.59589 0.0617s-0.38155 0.0997-0.51666 0.1497c-0.13469 0.0505-0.37864 0.17931-0.5421 0.28648-0.16305 0.10716-0.3974 0.29649-0.52042 0.42033-0.12343 0.12385-0.30066 0.33736-0.39406 0.47455s-0.2206 0.37197-0.28315 0.52125c-0.0625 0.1497-0.14344 0.41658-0.17972 0.59339-0.0567 0.27772-0.0658 0.78773-0.0658 3.7442s9e-3 3.4665 0.0658 3.7418c0.0363 0.17514 0.11134 0.43243 0.16721 0.5717 0.0554 0.13886 0.17598 0.3653 0.2673 0.50291 0.0913 0.13761 0.27439 0.3607 0.40615 0.49581 0.1322 0.13511 0.36238 0.32526 0.51125 0.42242 0.14887 0.0976 0.38364 0.22435 0.52125 0.28231 0.13761 0.058 0.3949 0.13511 0.57171 0.17181 0.1768 0.0363 0.45411 0.0663 0.61674 0.0663s0.43993-0.03 0.61674-0.0663c0.17639-0.0367 0.42742-0.10968 0.55711-0.16222 0.13011-0.053 0.36488-0.17972 0.52167-0.28189 0.15679-0.10216 0.38656-0.28732 0.51041-0.41116 0.12385-0.12385 0.30441-0.34736 0.40074-0.49623 0.0967-0.14929 0.216-0.36279 0.26521-0.47496 0.0492-0.11218 0.12093-0.309 0.16013-0.43785l0.0709-0.23394 0.0137-3.5445c0.0125-3.1325 6e-3 -3.5833-0.0534-3.8781-0.0367-0.18348-0.11843-0.45579-0.18098-0.60549-0.0625-0.14928-0.19015-0.38405-0.28356-0.52125-0.0934-0.13719-0.26688-0.34778-0.38573-0.46829-0.11884-0.12051-0.33193-0.29773-0.47371-0.39406-0.14136-0.0959-0.37989-0.2256-0.52917-0.28815-0.1497-0.0625-0.41658-0.14345-0.5934-0.17972-0.1768-0.0363-0.46745-0.0642-0.64635-0.0626zm12.51 0c-0.17847 2e-3 -0.44702 0.0296-0.59589 0.0617s-0.38155 0.0997-0.51666 0.1497c-0.13469 0.0505-0.37864 0.17931-0.5421 0.28648-0.16305 0.10716-0.3974 0.29649-0.52042 0.42033-0.12343 0.12385-0.30066 0.33736-0.39406 0.47455s-0.2206 0.37197-0.28315 0.52125c-0.0625 0.1497-0.14345 0.41658-0.17972 0.59339-0.0567 0.27772-0.0659 0.78773-0.0659 3.7442s9e-3 3.4665 0.0659 3.7418c0.0363 0.17514 0.11133 0.43243 0.16721 0.5717 0.0554 0.13886 0.17598 0.3653 0.2673 0.50291 0.0913 0.13761 0.27439 0.3607 0.40615 0.49581 0.1322 0.13511 0.36238 0.32526 0.51125 0.42242 0.14887 0.0976 0.38364 0.22435 0.52125 0.28231 0.13761 0.058 0.3949 0.13511 0.57171 0.17181 0.1768 0.0363 0.45411 0.0663 0.61674 0.0663s0.43993-0.03 0.61674-0.0663c0.17639-0.0367 0.42742-0.10968 0.55711-0.16222 0.13011-0.053 0.36488-0.17972 0.52167-0.28189 0.15679-0.10216 0.38656-0.28732 0.51041-0.41116 0.12385-0.12385 0.30441-0.34736 0.40074-0.49623 0.0967-0.14929 0.216-0.36279 0.26521-0.47496 0.0492-0.11218 0.12093-0.309 0.16013-0.43785l0.0709-0.23394 0.0137-3.5445c0.0125-3.1325 6e-3 -3.5833-0.0534-3.8781-0.0367-0.18348-0.11843-0.45579-0.18098-0.60549-0.0625-0.14928-0.19015-0.38405-0.28356-0.52125-0.0934-0.13719-0.26688-0.34778-0.38573-0.46829-0.11884-0.12051-0.33193-0.29773-0.47371-0.39406-0.14136-0.0959-0.37988-0.2256-0.52917-0.28815-0.1497-0.0625-0.41658-0.14345-0.5934-0.17972-0.1768-0.0363-0.46745-0.0642-0.64635-0.0626zm12.51 0c-0.17847 2e-3 -0.4466 0.0296-0.59589 0.0617-0.14887 0.0321-0.38156 0.0997-0.51666 0.1497-0.13469 0.0505-0.37864 0.17931-0.5421 0.28648-0.16305 0.10716-0.3974 0.29649-0.52042 0.42033-0.12343 0.12385-0.30066 0.33736-0.39406 0.47455s-0.2206 0.37197-0.28315 0.52125c-0.0625 0.1497-0.14345 0.41658-0.17972 0.59339-0.0567 0.27772-0.0659 0.78773-0.0659 3.7442s9e-3 3.4665 0.0659 3.7418c0.0363 0.17514 0.11133 0.43243 0.16721 0.5717 0.0554 0.13886 0.17598 0.3653 0.2673 0.50291 0.0913 0.13761 0.27439 0.3607 0.40615 0.49581 0.1322 0.13511 0.36238 0.32526 0.51125 0.42242 0.14929 0.0976 0.38364 0.22435 0.52125 0.28231 0.13761 0.058 0.3949 0.13511 0.57171 0.17181 0.1768 0.0363 0.45411 0.0663 0.61674 0.0663s0.43993-0.03 0.61674-0.0663c0.17639-0.0367 0.42742-0.10968 0.55711-0.16222 0.13011-0.053 0.36488-0.17972 0.52167-0.28189 0.15679-0.10216 0.38656-0.28732 0.51041-0.41116 0.12385-0.12385 0.30441-0.34736 0.40074-0.49623 0.0967-0.14929 0.216-0.36279 0.26521-0.47496 0.0492-0.11218 0.12093-0.309 0.16013-0.43785l0.0709-0.23394 0.0137-3.5445c0.0125-3.1325 6e-3 -3.5833-0.0534-3.8781-0.0367-0.18348-0.11843-0.45579-0.18098-0.60549-0.0625-0.14928-0.19015-0.38405-0.28356-0.52125-0.0934-0.13719-0.26688-0.34778-0.38573-0.46829-0.11884-0.12051-0.33193-0.29773-0.47371-0.39406-0.14136-0.0959-0.37989-0.2256-0.52917-0.28815-0.1497-0.0625-0.41658-0.14345-0.5934-0.17972-0.1768-0.0363-0.46745-0.0642-0.64635-0.0626z" stroke-width=".75"/>
 </g>

</svg>
